<?xml version="1.0" encoding="UTF-8"?>
<svg width="3390px" height="644px" viewBox="0 0 3390 644" version="1.1" xmlns="http://www.w3.org/2000/svg" xmlns:xlink="http://www.w3.org/1999/xlink">
    <!-- Generator: Sketch 51.3 (57544) - http://www.bohemiancoding.com/sketch -->
    <title>lt</title>
    <desc>Created with Sketch.</desc>
    <defs></defs>
    <g id="Page-1" stroke="none" stroke-width="1" fill="none" fill-rule="evenodd">
        <g id="lt" transform="translate(13.000000, 14.000000)">
            <ellipse id="path68" stroke="#77A2F8" stroke-width="27.38" cx="298.5" cy="307.9" rx="297.8" ry="307.6"></ellipse>
            <path d="M80.2,174.3 L78.6,371.6 C78.6,371.6 102.2,451.7 172.8,451.7 L347.6,451.7 L346,238.8 C346,238.8 337.7,164.1 256.1,164.1 L164,164.1 L203.7,216.2 L265.8,216.2 C265.8,216.2 297.4,226.4 297.4,260.9 C297.3,307.5 296.8,354.8 296.3,401.7 L171,401.7 C171,401.7 129.1,401.9 128,358.7 C126.9,315.7 129.1,224.3 129.1,224.3 L80.2,174.3 Z" id="path4584" fill="#6997F8" fill-rule="nonzero"></path>
            <polygon id="path4586" fill="#6997F8" fill-rule="nonzero" points="415.6 165.2 372.6 213.6 472.2 213.6 518.5 164.2"></polygon>
            <rect id="Rectangle-path" x="681.3" y="53.2" width="2909.4" height="629.9"></rect>
            <text id="LegalThings" font-family="Helvetica" font-size="500" font-weight="normal" fill="#364F67">
                <tspan x="671" y="489">LegalThings</tspan>
            </text>
        </g>
    </g>
</svg>