<?xml version="1.0" encoding="UTF-8"?>
<svg width="590px" height="386px" viewBox="0 0 590 386" version="1.1" xmlns="http://www.w3.org/2000/svg" xmlns:xlink="http://www.w3.org/1999/xlink">
    <!-- Generator: Sketch 51.3 (57544) - http://www.bohemiancoding.com/sketch -->
    <title>Group</title>
    <desc>Created with Sketch.</desc>
    <defs></defs>
    <g id="Page-2" stroke="none" stroke-width="1" fill="none" fill-rule="evenodd">
        <g id="lt" transform="translate(0.000000, -122.000000)" fill="#9867D0" fill-rule="nonzero">
            <g id="Group" transform="translate(0.000000, 122.000000)">
                <path d="M2.46441381,13.6802701 L0.318489084,278.299613 C0.318489084,278.299613 31.9708788,385.729969 126.659807,385.729969 L361.102084,385.729969 L358.956159,100.187861 C358.956159,100.187861 347.824174,0 238.382013,0 L114.857221,0 L168.102979,69.8766739 L251.391682,69.8766739 C251.391682,69.8766739 293.773695,83.556944 293.773695,129.828446 C293.639575,192.328504 292.968974,255.767403 292.298372,318.669822 L124.245642,318.669822 C124.245642,318.669822 68.0492382,318.938062 66.573915,260.998095 C65.0985917,203.326368 68.0492382,80.7404178 68.0492382,80.7404178 L2.46441381,13.6802701 Z" id="path4584"></path>
                <polygon id="path4586" points="451.990216 1.34120295 394.318489 66.2554259 527.902303 66.2554259 590 0"></polygon>
            </g>
        </g>
    </g>
</svg>