<?xml version="1.0" encoding="utf-8"?>
<!-- Generator: Adobe Illustrator 19.2.0, SVG Export Plug-In . SVG Version: 6.00 Build 0)  -->
<svg version="1.1" id="svg10" xmlns="http://www.w3.org/2000/svg" xmlns:xlink="http://www.w3.org/1999/xlink" x="0px" y="0px"
	 viewBox="0 0 3881.1 876" style="enable-background:new 0 0 3881.1 876;" xml:space="preserve">
<style type="text/css">
	.st0{fill:none;stroke:#9867D0;stroke-width:27.38;}
	.st1{fill:#9867D0;}
	.st2{fill:none;}
	.st3{fill:#354E67;}
	.st4{font-family:'ProximaNova-Bold';}
	.st5{font-size:514px;}
	.st6{letter-spacing:-3;}
	.st7{font-size:288px;}
</style>
<title>lt-logo</title>
<ellipse id="path68" class="st0" cx="330.5" cy="380.9" rx="297.8" ry="307.6"/>
<path id="path4584" class="st1" d="M112.2,247.3l-1.6,197.3c0,0,23.6,80.1,94.2,80.1h174.8L378,311.8c0,0-8.3-74.7-89.9-74.7H196
	l39.7,52.1h62.1c0,0,31.6,10.2,31.6,44.7c-0.1,46.6-0.6,93.9-1.1,140.8H203c0,0-41.9,0.2-43-43c-1.1-43,1.1-134.4,1.1-134.4
	L112.2,247.3z"/>
<path id="path4586" class="st1" d="M447.6,238.2l-43,48.4h99.6l46.3-49.4L447.6,238.2z"/>
<rect x="713.3" y="126.2" class="st2" width="2909.4" height="629.9"/>
<text transform="matrix(1 0 0 1 713.232 468.9967)" class="st3 st4 st5 st6">L</text>
<text transform="matrix(1 0 0 1 972.2919 468.9967)" class="st3 st4 st5">egalThings</text>
<rect x="736.3" y="126.2" class="st2" width="2909.4" height="629.9"/>
<text transform="matrix(1 0 0 1 736.232 761.2667)" class="st3 st4 st7">One</text>
</svg>
