<?xml version="1.0" encoding="utf-8"?>
<!-- Generator: Adobe Illustrator 19.2.0, SVG Export Plug-In . SVG Version: 6.00 Build 0)  -->
<svg version="1.1" id="Layer_1" xmlns="http://www.w3.org/2000/svg" xmlns:xlink="http://www.w3.org/1999/xlink" x="0px" y="0px"
	 viewBox="0 0 300 300" style="enable-background:new 0 0 300 300;" xml:space="preserve">
<style type="text/css">
	.st0{fill:none;stroke:#241E22;stroke-width:4;stroke-miterlimit:10;}
	.st1{fill:none;stroke:#6897F8;stroke-width:4;stroke-miterlimit:10;}
	.st2{fill:#FFFFFF;stroke:#241E22;stroke-width:4;stroke-linecap:round;stroke-linejoin:round;stroke-miterlimit:10;}
	.st3{fill:#6897F8;stroke:#241E22;stroke-width:3;stroke-linecap:round;stroke-linejoin:round;stroke-miterlimit:10;}
	.st4{fill:#FFFFFF;stroke:#404F54;stroke-width:3;stroke-linecap:round;stroke-linejoin:round;stroke-miterlimit:10;}
	.st5{fill:#FFFFFF;stroke:#6897F8;stroke-width:4;stroke-linecap:round;stroke-linejoin:round;stroke-miterlimit:10;}
	.st6{fill:#6897F8;}
	.st7{fill:none;stroke:#241E22;stroke-width:4;stroke-linecap:round;stroke-linejoin:round;stroke-miterlimit:10;}
</style>
<g>
	<g>
		<path class="st0" d="M235.2,255.4c-23.3,18.8-52.9,30.1-85.2,30.1c-46.4,0-87.4-23.3-111.8-58.9"/>
		<path class="st0" d="M252.9,238.2c-4.2,4.9-8.8,9.6-13.7,13.8"/>
		<path class="st0" d="M261.8,226.7c-1.9,2.8-3.9,5.4-6,8"/>
		<path class="st0" d="M285.2,160.2c-1.1,14.9-4.6,29.1-10.1,42.2"/>
		<path class="st0" d="M283.2,124.7c0.7,3.6,1.2,7.3,1.6,11.1c0.5,4.7,0.7,9.4,0.7,14.2"/>
		<path class="st0" d="M227.3,38.6c26.2,18.2,45.7,45.5,54,77.3"/>
		<path class="st0" d="M87.2,29.8C106,20,127.4,14.5,150,14.5c23.4,0,45.4,5.9,64.6,16.4"/>
		<path class="st0" d="M15.8,169.3c-0.9-6.3-1.4-12.7-1.4-19.3c0-32.8,11.7-63,31.1-86.4"/>
		<path class="st1" d="M171.2,265.9c-6.9,1.3-14,1.9-21.2,1.9c-35.8,0-67.9-16-89.5-41.1"/>
		<path class="st1" d="M222.2,243.1c-13.1,10.2-28.4,17.7-45.1,21.6"/>
		<path class="st1" d="M235.8,230.7c-2.7,2.9-5.5,5.6-8.5,8.2"/>
		<path class="st1" d="M238,71.7c18.5,20.8,29.8,48.3,29.8,78.3c0,11.6-1.7,22.8-4.8,33.3"/>
		<path class="st1" d="M101.4,42.6c14.8-6.7,31.3-10.5,48.6-10.5c30.9,0,59.1,11.9,80.1,31.4"/>
		<path class="st1" d="M32.2,150c0-29.3,10.7-56.1,28.4-76.7"/>
		<path class="st1" d="M49.8,150c0-17.3,4.4-33.6,12.1-47.9"/>
		<path class="st1" d="M129.9,248.2c-15.6-3.2-29.9-10-42-19.5"/>
		<path class="st1" d="M217.1,224.5c-17.8,16-41.3,25.8-67.1,25.8c-4.1,0-8.1-0.2-12-0.7"/>
		<path class="st1" d="M197.2,61.5c20.6,11,36.9,29,45.7,50.8"/>
		<path class="st1" d="M93.9,66.9"/>
	</g>
	<g>
		<g>
			<g>
				<polyline class="st2" points="175.5,212.5 89.5,212.5 89.5,58.5 163.8,58.5 209.4,100.6 209.4,157.1 209.4,212.5 				"/>
				<polygon class="st3" points="163.8,58.5 209.4,100.6 163.8,100.6 				"/>
				<path class="st4" d="M209.4,157.1"/>
				<g>
					<g>
						<line class="st5" x1="113.4" y1="102.7" x2="135.2" y2="102.7"/>
						<line class="st5" x1="113.4" y1="118.2" x2="135.2" y2="118.2"/>
						<line class="st5" x1="113.4" y1="133.8" x2="170.9" y2="133.8"/>
						<line class="st5" x1="113.4" y1="163.5" x2="170.9" y2="163.5"/>
						<line class="st5" x1="113.4" y1="148.6" x2="170.9" y2="148.6"/>
					</g>
				</g>
				<circle class="st2" cx="209.4" cy="164.8" r="30.9"/>
				<g>
					<path class="st6" d="M225.6,167.7h-26.1l-6.6,0c-1.3,0-2,1.5-1,2.3l16,13.5c0.8,0.7,2.2,0.7,2.9-0.1l0,0
						c0.8-0.8,0.7-1.9-0.1-2.6l-10.2-8.6c-0.4-0.3-0.1-0.8,0.4-0.8h24.8c1.3,0,2.3-1,2-2.2C227.6,168.3,226.7,167.7,225.6,167.7z"/>
					<path class="st6" d="M193.7,163.3l26.1,0l6.6,0c1.3,0,2-1.5,1-2.3l-16-13.5c-0.8-0.7-2.2-0.7-2.9,0.1l0,0
						c-0.8,0.8-0.7,1.9,0.1,2.6l10.2,8.6c0.4,0.3,0.1,0.8-0.4,0.8h-24.8c-1.3,0-2.3,1-2,2.2C191.7,162.7,192.6,163.3,193.7,163.3z"
						/>
				</g>
			</g>
		</g>
		<g>
			<line class="st7" x1="270" y1="212.5" x2="282.5" y2="212.5"/>
			<line class="st7" x1="24.6" y1="212.5" x2="249.7" y2="212.5"/>
		</g>
	</g>
</g>
</svg>
