<?xml version="1.0" encoding="utf-8"?>
<!-- Generator: Adobe Illustrator 19.2.0, SVG Export Plug-In . SVG Version: 6.00 Build 0)  -->
<svg version="1.1" id="Layer_1" xmlns="http://www.w3.org/2000/svg" xmlns:xlink="http://www.w3.org/1999/xlink" x="0px" y="0px"
	 viewBox="0 0 300 300" style="enable-background:new 0 0 300 300;" xml:space="preserve">
<style type="text/css">
	.st0{fill:none;stroke:#6897F8;stroke-width:4;stroke-miterlimit:10;}
	.st1{fill:#6897F8;stroke:#6897F8;stroke-width:4;stroke-linecap:round;stroke-linejoin:round;stroke-miterlimit:10;}
	.st2{fill:none;stroke:#241E22;stroke-width:4;stroke-linecap:round;stroke-linejoin:round;stroke-miterlimit:10;}
	.st3{fill:#6897F8;stroke:#241E22;stroke-width:4;stroke-linecap:round;stroke-linejoin:round;stroke-miterlimit:10;}
	.st4{fill:#FFFFFF;}
	.st5{fill:none;stroke:#241E22;stroke-width:4;stroke-miterlimit:10;}
</style>
<g>
	<g>
		<path class="st0" d="M61.1,196.5c-7.3-13.9-11.4-29.7-11.4-46.4c0-17.9,4.7-34.8,13-49.3"/>
		<path class="st0" d="M248.9,133.5c0.9,5.4,1.4,10.9,1.4,16.5c0,16.8-4.1,32.6-11.4,46.4"/>
		<path class="st0" d="M235.9,98.3c4.5,7.5,8.1,15.6,10.5,24.2"/>
		<path class="st0" d="M36.4,118.1c3.8-13.7,10.1-26.3,18.2-37.5"/>
		<path class="st0" d="M32.3,142.3c0.3-4.7,0.9-9.4,1.7-14"/>
		<path class="st0" d="M90,251.6c-34.1-20.2-57.1-57-58-99.3"/>
		<path class="st0" d="M246.4,218.1C225,248.3,189.8,268,150,268c-17.5,0-34.1-3.8-49-10.6"/>
		<path class="st0" d="M261.3,110.9c4.3,12.2,6.6,25.4,6.6,39.1c0,21.3-5.6,41.3-15.5,58.5"/>
		<path class="st0" d="M244.8,79.8c4.8,6.5,9,13.5,12.4,20.9"/>
		<path class="st0" d="M143.4,32.2c2.2-0.1,4.4-0.2,6.6-0.2c24.4,0,47.1,7.4,66,20.2"/>
		<path class="st0" d="M83.1,52.8c14-9.6,30.1-16.3,47.6-19.2"/>
	</g>
	<g>
		<circle class="st1" cx="150" cy="144.6" r="30.9"/>
		<line class="st2" x1="226.2" y1="130.7" x2="226.2" y2="145.1"/>
		<path class="st2" d="M226.2,155.2v48.4c0,8.3-6.7,15-15,15H88.8c-8.3,0-15-6.7-15-15V85.7c0-8.3,6.7-15,15-15h122.4
			c8.3,0,15,6.7,15,15v35.3"/>
		<path class="st2" d="M124.5,89.9h70.7c5.9,0,10.7,4.5,11.1,10.3"/>
		<path class="st2" d="M206.2,190c-0.9,5.3-5.5,9.3-11,9.3h-90.4c-6.1,0-11.1-5-11.1-11.1v-87.1c0-6.1,5-11.1,11.1-11.1h5.7"/>
		<line class="st2" x1="206.3" y1="120.9" x2="206.3" y2="169.4"/>
		<rect x="199.9" y="100.2" class="st3" width="12.8" height="20.7"/>
		<rect x="199.9" y="169.4" class="st3" width="12.8" height="20.7"/>
		<circle class="st4" cx="150" cy="144.6" r="13.9"/>
		<g>
			<g>
				<line class="st2" x1="150" y1="120.9" x2="150" y2="113.7"/>
				<line class="st2" x1="150" y1="175.5" x2="150" y2="168.3"/>
			</g>
			<g>
				<line class="st2" x1="173.7" y1="144.6" x2="180.9" y2="144.6"/>
				<line class="st2" x1="119.1" y1="144.6" x2="126.3" y2="144.6"/>
			</g>
		</g>
		<g>
			<g>
				<line class="st2" x1="166.8" y1="127.9" x2="171.8" y2="122.8"/>
				<line class="st2" x1="128.2" y1="166.4" x2="133.2" y2="161.4"/>
			</g>
			<g>
				<line class="st2" x1="166.8" y1="161.4" x2="171.8" y2="166.4"/>
				<line class="st2" x1="128.2" y1="122.8" x2="133.2" y2="127.9"/>
			</g>
		</g>
		<path class="st2" d="M207.9,229.4H92.8c-1.5,0-2.8-1.2-2.8-2.8v-8.1h120.7v8.1C210.7,228.2,209.4,229.4,207.9,229.4z"/>
	</g>
	<g>
		<path class="st5" d="M15.4,166.2C11.2,131,20.8,94.5,44.1,65.4"/>
		<path class="st5" d="M168.1,284.3c-41.2,5.5-84.3-7.9-115.4-40c-18.8-19.4-30.6-42.9-35.6-67.5"/>
		<path class="st5" d="M197.7,276.9c-4.5,1.7-9.1,3.1-13.8,4.3"/>
		<path class="st5" d="M257.3,232.8c-3.9,5.1-8.3,9.9-13,14.5c-9.7,9.4-20.5,17.1-31.9,23"/>
		<path class="st5" d="M133.2,15.5c40.8-5,83.3,8.4,114.1,40.2c42.1,43.4,49.3,107.7,22.2,158.3c-1.8,3.4-3.8,6.7-5.9,10"/>
		<path class="st5" d="M111.9,19.9c3.8-1.1,7.6-2,11.5-2.8"/>
		<path class="st5" d="M55.7,52.7C68.4,40.3,83,30.9,98.5,24.6"/>
	</g>
</g>
</svg>
