<?xml version="1.0" encoding="utf-8"?>
<!-- Generator: Adobe Illustrator 19.2.0, SVG Export Plug-In . SVG Version: 6.00 Build 0)  -->
<svg version="1.1" id="Layer_1" xmlns="http://www.w3.org/2000/svg" xmlns:xlink="http://www.w3.org/1999/xlink" x="0px" y="0px"
	 viewBox="0 0 300 300" style="enable-background:new 0 0 300 300;" xml:space="preserve">
<style type="text/css">
	.st0{fill:none;stroke:#6897F8;stroke-width:4;stroke-miterlimit:10;}
	.st1{fill:none;stroke:#241E22;stroke-width:4;stroke-miterlimit:10;}
	.st2{fill:#6897F8;stroke:#241E22;stroke-width:4;stroke-linecap:round;stroke-linejoin:round;stroke-miterlimit:10;}
	.st3{fill:none;stroke:#241E22;stroke-width:4;stroke-linecap:round;stroke-linejoin:round;stroke-miterlimit:10;}
	.st4{fill:none;stroke:#FFFFFF;stroke-width:4;stroke-linecap:round;stroke-linejoin:round;stroke-miterlimit:10;}
	.st5{fill:#FFFFFF;stroke:#241E22;stroke-width:4;stroke-linecap:round;stroke-linejoin:round;stroke-miterlimit:10;}
</style>
<g>
	<g>
		<g>
			<path class="st0" d="M50.4,138.7c2.2-19.8,10.2-37.8,22.2-52.4"/>
			<path class="st0" d="M167.2,248.8c-5.6,1-11.3,1.5-17.2,1.5c-51.9,0-94.6-39.4-99.7-90"/>
			<path class="st0" d="M249.7,160.8c-0.1,0.6-0.1,1.2-0.2,1.8c-4.9,38.8-32,70.8-68.2,82.7"/>
			<path class="st0" d="M227.4,86.3c12,14.6,20,32.7,22.2,52.5"/>
			<path class="st0" d="M160.3,50.3c20.2,2.1,38.7,10.1,53.6,22.4"/>
			<path class="st0" d="M86.2,72.7C101.4,60.1,120.3,52,141,50.1"/>
			<path class="st0" d="M109.1,260.6c-4-1.5-8-3.2-11.8-5.1"/>
			<path class="st0" d="M240.9,225c-21.6,26.2-54.3,42.9-90.9,42.9c-12.3,0-24.1-1.9-35.3-5.4"/>
			<path class="st0" d="M259.7,106.9c5.2,13.4,8.1,27.9,8.1,43.1c0,21.4-5.7,41.4-15.6,58.7"/>
			<path class="st0" d="M142.8,32.4c2.4-0.1,4.8-0.2,7.2-0.2c45.8,0,85.4,26.1,104.9,64.2"/>
			<path class="st0" d="M92.4,47.2c10.8-6.1,22.7-10.5,35.3-12.9"/>
			<path class="st0" d="M41.6,103.7c8.6-20.2,22.7-37.5,40.4-50"/>
			<path class="st0" d="M41.6,196.3c-6.1-14.2-9.4-29.8-9.4-46.3c0-13.1,2.1-25.7,6.1-37.5"/>
			<path class="st0" d="M90.3,251.6c-18.7-11-34.2-27.1-44.4-46.4"/>
		</g>
		<g>
			<path class="st1" d="M14.7,157.3c-1.9-35.4,10.1-71.2,35.2-98.6"/>
			<path class="st1" d="M159.3,285.2c-41.4,2.8-83.6-13.4-112.6-47.5c-17.5-20.6-27.7-44.8-31-69.7"/>
			<path class="st1" d="M189.2,279.8c-4.6,1.4-9.3,2.5-14,3.4"/>
			<path class="st1" d="M251.7,239.6c-4.3,4.8-8.9,9.4-13.9,13.7c-10.3,8.8-21.5,15.7-33.3,20.9"/>
			<path class="st1" d="M142.1,14.7c41-2.4,82.6,13.9,111.2,47.6c39.1,46.1,42.1,110.7,11.8,159.4c-2,3.3-4.2,6.5-6.6,9.6"/>
			<path class="st1" d="M120.5,17.7c3.8-0.9,7.7-1.5,11.6-2.1"/>
			<path class="st1" d="M62.3,46.7C75.8,35.2,91,26.8,106.8,21.5"/>
		</g>
	</g>
	<g>
		<path class="st2" d="M150.3,103.3L150.3,103.3c-24.8,0-44.8,20.1-44.8,44.8v34h89.6v-34C195.1,123.3,175,103.3,150.3,103.3z"/>
		<line class="st3" x1="150.3" y1="61.2" x2="150.3" y2="86.3"/>
		<g>
			<line class="st3" x1="87.1" y1="148.8" x2="62" y2="148.8"/>
			<line class="st3" x1="238.5" y1="148.8" x2="213.4" y2="148.8"/>
		</g>
		<g>
			<line class="st3" x1="105.6" y1="104.2" x2="87.8" y2="86.4"/>
		</g>
		<g>
			<line class="st3" x1="194.9" y1="104.2" x2="212.7" y2="86.4"/>
		</g>
		<path class="st4" d="M182.2,150.6c-0.2-2.8-1.4-14.4-11.2-23.8c-7.2-7-15.5-9.2-20.7-10"/>
		<rect x="96.9" y="182" class="st5" width="105.7" height="26.7"/>
	</g>
</g>
</svg>
