<?xml version="1.0" encoding="utf-8"?>
<!-- Generator: Adobe Illustrator 19.2.0, SVG Export Plug-In . SVG Version: 6.00 Build 0)  -->
<svg version="1.1" id="Layer_1" xmlns="http://www.w3.org/2000/svg" xmlns:xlink="http://www.w3.org/1999/xlink" x="0px" y="0px"
	 viewBox="0 0 300 300" style="enable-background:new 0 0 300 300;" xml:space="preserve">
<style type="text/css">
	.st0{fill:none;stroke:#241E22;stroke-width:4;stroke-miterlimit:10;}
	.st1{fill:none;stroke:#6897F8;stroke-width:4;stroke-miterlimit:10;}
	.st2{fill:none;stroke:#241E22;stroke-width:4;stroke-linecap:round;stroke-linejoin:round;stroke-miterlimit:10;}
	.st3{fill:none;stroke:#404F54;stroke-width:3;stroke-linecap:round;stroke-linejoin:round;stroke-miterlimit:10;}
	.st4{opacity:0.46;}
	.st5{fill:none;stroke:#6897F8;stroke-width:4;stroke-linecap:round;stroke-linejoin:round;stroke-miterlimit:10;}
	.st6{fill:#6897F8;}
	.st7{fill:#FFFFFF;stroke:#241E22;stroke-width:4;stroke-miterlimit:10;}
</style>
<g>
	<g>
		<g>
			<path class="st0" d="M60.7,251.9C32.3,227.1,14.5,190.6,14.5,150c0-5.9,0.4-11.7,1.1-17.4"/>
			<path class="st0" d="M79.8,265.9c-4.9-3-9.7-6.3-14.2-9.9"/>
			<path class="st0" d="M124.2,283.1c-13.4-2.6-26.1-7.1-37.8-13.3"/>
			<path class="st0" d="M284.6,133.7c0.6,5.4,1,10.8,1,16.3c0,74.9-60.7,135.5-135.5,135.5c-6,0-11.9-0.4-17.7-1.1"/>
			<path class="st0" d="M270.4,87.6c6.2,11.9,10.7,24.9,13.1,38.5"/>
			<path class="st1" d="M33.1,135c0.4-3.4,1-6.8,1.7-10.1"/>
			<path class="st1" d="M75.2,241.1c-26.3-21.6-43.1-54.4-43.1-91.1c0-2.5,0.1-5,0.2-7.5"/>
			<path class="st1" d="M95.1,254.3c-4.9-2.6-9.5-5.5-13.9-8.6"/>
			<path class="st1" d="M223.3,242.2c-20.1,16-45.6,25.6-73.3,25.6c-17.4,0-33.9-3.8-48.7-10.5"/>
			<path class="st1" d="M63.1,200c-3.4-5.9-6.2-12.1-8.3-18.7"/>
			<path class="st1" d="M191.8,241.1c-12.7,5.8-26.9,9.1-41.8,9.1c-15,0-29.2-3.3-41.9-9.2"/>
		</g>
		<g>
			<path class="st0" d="M69.5,184.3c-11.8-14.4-19.8-32-22.5-51.3c-0.7-4.8-1-9.6-1-14.6c0-57.4,46.6-104,104-104s104,46.6,104,104
				c0,18.4-4.8,35.8-13.2,50.8"/>
			<path class="st2" d="M69.5,184.3c-11.8-14.4-19.8-32-22.5-51.3c-0.7-4.8-1-9.6-1-14.6c0-57.4,46.6-104,104-104s104,46.6,104,104
				c0,18.4-4.8,35.8-13.2,50.8"/>
			<path class="st2" d="M47.5,136.3v-10.9c0-6.1,4.9-11,11-11h0c6.1,0,11,4.9,11,11v93.6c0,7.2,5.9,13.1,13.1,13.1h0
				c7.2,0,13.1-5.9,13.1-13.1V29.7"/>
			<line class="st2" x1="95.8" y1="114.5" x2="58.5" y2="114.5"/>
			<path class="st3" d="M82.6,232.2h143.4c8.1,0,14.7-6.6,14.7-14.7V69.1"/>
			<g>
				<g>
					<g>
						<path class="st2" d="M240.8,67.6v149.9c0,8.1-6.6,14.7-14.7,14.7H82.6l0,0c7.2,0,13.1-5.9,13.1-13.1l0-189.4
							c15.8-9.7,34.4-15.3,54.2-15.3C189,14.5,222.9,35.9,240.8,67.6L240.8,67.6z"/>
					</g>
				</g>
			</g>
			<g class="st4">
				<g>
					<line class="st5" x1="108.1" y1="42.1" x2="220.5" y2="42.1"/>
					<line class="st5" x1="108.1" y1="69" x2="220.5" y2="69"/>
					<line class="st5" x1="108.1" y1="95.9" x2="220.5" y2="95.9"/>
					<line class="st5" x1="108.1" y1="122.8" x2="220.5" y2="122.8"/>
					<line class="st5" x1="108.1" y1="149.7" x2="220.5" y2="149.7"/>
					<line class="st5" x1="108.1" y1="176.6" x2="220.5" y2="176.6"/>
					<line class="st5" x1="108.1" y1="203.6" x2="220.5" y2="203.6"/>
				</g>
			</g>
		</g>
	</g>
	<g>
		<circle class="st6" cx="220.5" cy="174.9" r="21.5"/>
		<path class="st7" d="M271.7,181.2c-0.2-0.6-0.6-1-1.1-1.2l-11.1-5.3c0-2.2-0.3-4.6-0.7-7.1c1.1-0.8,2.7-2,4.8-3.5
			c2.1-1.5,3.6-2.6,4.5-3.3c0.5-0.4,0.8-0.8,1-1.3c0.2-0.6,0.2-1.1,0-1.5c-0.9-2.6-3.3-7.3-7.2-14.1c-0.4-0.6-0.8-1-1.4-1.1
			c-0.6-0.2-1.2-0.2-1.7,0.1l-11.1,4.1c-1.5-1.4-3.2-2.8-5-4.1l1.8-12.3c0.1-0.6,0-1.1-0.3-1.6c-0.3-0.5-0.8-0.8-1.4-1l-14.2-4.3
			c-1.2-0.4-2.2,0-2.8,1.1c-1.2,2-3,5.7-5.5,11.3c-2.2,0-4.4,0.3-6.5,0.7l-6.7-9.5c-0.4-0.6-0.9-1-1.5-1.1c-0.9-0.3-3.4,0.6-7.4,2.7
			c-4,2.1-6.8,3.8-8.4,5c-0.6,0.4-0.9,0.9-1,1.3c-0.2,0.5-0.1,1.1,0.2,1.7l4.2,10.9c-1.7,1.6-3.1,3.3-4.3,5.1l-12.4-1.8
			c-0.5-0.1-1,0.1-1.5,0.5c-0.5,0.4-0.8,0.8-1,1.3l-4.3,14.2c-0.2,0.6-0.1,1.1,0.1,1.7c0.2,0.6,0.6,1,1.1,1.2l11.2,5.3
			c0,2.3,0.2,4.6,0.7,7.1c-1.1,0.8-2.7,2-4.8,3.5c-2.1,1.5-3.6,2.6-4.5,3.3c-0.5,0.4-0.8,0.8-1,1.3c-0.2,0.6-0.2,1.1,0,1.6
			c1,2.8,3.4,7.4,7.3,13.9c0.3,0.6,0.8,1,1.4,1.2c0.6,0.2,1.2,0.2,1.8-0.1l11.1-4.1c1.5,1.4,3.2,2.8,5,4.1l-1.8,12.3
			c-0.1,0.6,0,1.1,0.3,1.6c0.3,0.5,0.8,0.8,1.4,1l14.2,4.3c1.2,0.4,2.2,0,2.8-1.1c1.2-2,3-5.7,5.5-11.3c2.2,0,4.4-0.3,6.5-0.7
			l6.7,9.6c0.5,0.6,1,0.9,1.5,1.1c0.9,0.3,3.4-0.6,7.4-2.7c4-2.1,6.8-3.8,8.4-5c0.5-0.3,0.9-0.7,1-1.3c0.2-0.6,0.1-1.2-0.2-1.8
			c-1.9-4.7-3.3-8.3-4.2-10.9c1.3-1.3,2.7-3,4.3-5.1l12.4,1.8c0.5,0.1,1-0.1,1.5-0.4c0.5-0.4,0.8-0.8,1-1.3l4.3-14.2
			C271.9,182.3,271.9,181.7,271.7,181.2z"/>
		<path class="st6" d="M190.6,141.6c0.1,0.4,0.3,0.7,0.4,1.1c0.2,0.4,0,0,0.2,0.4L190.6,141.6z"/>
		<circle class="st6" cx="220.5" cy="174.9" r="21.5"/>
		<circle class="st6" cx="220.5" cy="174.9" r="21.5"/>
	</g>
</g>
</svg>
