<?xml version="1.0" encoding="utf-8"?>
<!-- Generator: Adobe Illustrator 19.2.0, SVG Export Plug-In . SVG Version: 6.00 Build 0)  -->
<svg version="1.1" id="Layer_1" xmlns="http://www.w3.org/2000/svg" xmlns:xlink="http://www.w3.org/1999/xlink" x="0px" y="0px"
	 viewBox="0 0 300 300" style="enable-background:new 0 0 300 300;" xml:space="preserve">
<style type="text/css">
	.st0{fill:none;stroke:#6897F8;stroke-width:4;stroke-miterlimit:10;}
	.st1{fill:none;stroke:#241E22;stroke-width:4;stroke-linecap:round;stroke-linejoin:round;stroke-miterlimit:10;}
	.st2{fill:#6897F8;stroke:#241E22;stroke-width:4;stroke-linecap:round;stroke-linejoin:round;stroke-miterlimit:10;}
	.st3{fill:#6897F8;}
	.st4{fill:none;stroke:#241E22;stroke-width:4;stroke-miterlimit:10;}
</style>
<g>
	<g>
		<path class="st0" d="M51.1,133.7c1.5-9.5,4.4-18.5,8.4-26.9"/>
		<path class="st0" d="M111.4,242.6c-36.2-15.1-61.7-50.9-61.7-92.6c0-1.9,0.1-3.7,0.2-5.5"/>
		<path class="st0" d="M155.5,250.1c-1.8,0.1-3.7,0.1-5.5,0.1c-8.7,0-17.1-1.1-25.1-3.2"/>
		<path class="st0" d="M224.7,83.1c15.9,17.7,25.6,41.2,25.6,66.9c0,5.9-0.5,11.6-1.5,17.2"/>
		<path class="st0" d="M121.3,53.9c9.1-2.7,18.7-4.2,28.7-4.2c24,0,46,8.4,63.3,22.5"/>
		<path class="st0" d="M44,98.1c2.6-5.2,5.5-10.2,8.8-15"/>
		<path class="st0" d="M32.2,143.6c0.7-12.9,3.5-25.3,8-36.8"/>
		<path class="st0" d="M121.4,264.5c-48.8-12.2-85.6-54.7-89.1-106.4"/>
		<path class="st0" d="M209.9,251.7C192.4,262,171.9,268,150,268c-4.7,0-9.3-0.3-13.8-0.8"/>
		<path class="st0" d="M242.8,222.8c-6.1,7.8-13.1,14.7-21,20.8"/>
		<path class="st0" d="M267.5,138.8c0.3,3.7,0.5,7.4,0.5,11.2c0,22.8-6.5,44.2-17.7,62.2"/>
		<path class="st0" d="M258.9,104.6c2.6,6.2,4.6,12.6,6.2,19.3"/>
		<path class="st0" d="M185.8,37.5c28.7,9.1,52.6,28.9,67.1,54.7"/>
		<path class="st0" d="M98.3,43.9C113.9,36.3,131.5,32,150,32c8.1,0,16.1,0.8,23.8,2.4"/>
	</g>
	<g>
		<path class="st1" d="M113.1,104.8l-3.2,0c-7.5,0.4-13.5,6.4-13.9,13.9l-0.2,45.1c0,4.6,1.8,9.1,5.1,12.4l74.3,74.3
			c1.5,1.5,3.9,1.5,5.5,0l61.1-61.1c1.5-1.5,1.5-3.9,0-5.5l-74.3-74.3c-3.3-3.3-7.7-5.1-12.4-5.1l-29.6,0.2"/>
		<path class="st2" d="M122.5,120.1c3.1,3.1,3.1,8.2,0,11.3c-3.1,3.1-8.2,3.1-11.3,0c-3.1-3.1-3.1-8.2,0-11.3"/>
		<path class="st1" d="M115.8,126.2c12.1-36.6,3-66.4-12.7-72.5c-13-5-36.6,3.9-41.1,22.7c-4,16.4,7.8,35.7,28,40.3"/>
		<path class="st3" d="M176.7,168.8c-4.7-0.3-8.5,2-9,2.3c-2.4,1.5-3.4,3.1-6,3.4c-0.5,0.1-2.8,0.3-3.6-0.9c-1.2-1.7,1.1-4.8,1.3-5
			c2.3-3.1,6.3-3.7,7.6-3.8c-0.7-3-1.4-6-2.1-9c-0.9,0.2-4.7,1-8.5,3.3l-4.1-4.1c-0.4-0.4-1-0.4-1.3,0l-4.8,4.8
			c-0.4,0.4-0.4,1,0,1.3l4,4c-0.2,0.4-0.5,0.8-0.7,1.2c-0.6,1.2-1.7,3.5-1.5,6.7c0,0.5,0.3,4.8,3.6,8c1.9,2,4.4,3.2,7.2,3.6
			c3.1,0.5,6.2-0.2,9-1.6c7.3-3.9,9.9-4.1,10.7-3.2c0.9,1-0.3,3.6-0.8,4.7c-1,1.9-2.5,2.8-3.5,3.4c-2.8,1.7-5.7,1.8-7.2,1.8
			c0.4,2.9,0.7,5.8,1.1,8.7c0.7,0.1,7.3,1.2,13.1-2.3l3.9,3.9c0.4,0.4,1,0.4,1.3,0l4.8-4.8c0.4-0.4,0.4-1,0-1.3l-4.1-4.1
			c1.1-2,2-4.7,1.9-7.9c-0.1-1.4-0.3-5.7-3.7-9.1C181.9,169.2,177.8,168.9,176.7,168.8z"/>
	</g>
	<g>
		<path class="st4" d="M28.4,209.8C12.8,178,9.7,140.4,22,105.3"/>
		<path class="st4" d="M211.6,270.7c-37,18.8-82.2,20.5-122.2,0.5c-24.1-12.1-43.1-30.4-55.9-51.9"/>
		<path class="st4" d="M237,254c-3.7,3.1-7.6,6-11.5,8.6"/>
		<path class="st4" d="M278.7,192.5c-2,6.1-4.5,12.1-7.5,18c-6,12.1-13.7,22.9-22.5,32.3"/>
		<path class="st4" d="M89.6,28.6c36.8-18.3,81.4-19.7,121,0.1c54.1,27,82.2,85.3,73.4,142c-0.6,3.8-1.3,7.6-2.3,11.4"/>
		<path class="st4" d="M70.9,39.9c3.2-2.3,6.5-4.4,9.9-6.4"/>
		<path class="st4" d="M28.8,89.4c7.9-15.9,18.6-29.6,31.1-40.7"/>
	</g>
</g>
</svg>
