<?xml version="1.0" encoding="utf-8"?>
<!-- Generator: Adobe Illustrator 19.2.0, SVG Export Plug-In . SVG Version: 6.00 Build 0)  -->
<svg version="1.1" id="Layer_1" xmlns="http://www.w3.org/2000/svg" xmlns:xlink="http://www.w3.org/1999/xlink" x="0px" y="0px"
	 viewBox="0 0 300 300" style="enable-background:new 0 0 300 300;" xml:space="preserve">
<style type="text/css">
	.st0{fill:none;stroke:#241E22;stroke-width:4;stroke-linecap:round;stroke-linejoin:round;stroke-miterlimit:10;}
	.st1{fill:#6897F8;stroke:#241E22;stroke-width:4;stroke-linecap:round;stroke-linejoin:round;stroke-miterlimit:10;}
	.st2{fill:#FFFFFF;stroke:#241E22;stroke-width:4;stroke-linecap:round;stroke-linejoin:round;stroke-miterlimit:10;}
	.st3{fill:none;stroke:#6897F8;stroke-width:4;stroke-miterlimit:10;}
	.st4{fill:none;stroke:#241E22;stroke-width:4;stroke-miterlimit:10;}
</style>
<g>
	<g>
		<g>
			<path class="st0" d="M105.2,229h2.3c11.6,0,21.1-9.4,21.1-21.1v0h86.6v0.7c0,11.3-9.1,20.4-20.4,20.4h-88.9
				c-11.6,0-21.1-9.4-21.1-21.1V88.1h115.5v9.4"/>
			<line class="st0" x1="200" y1="195.7" x2="200" y2="141.7"/>
			<polyline class="st0" points="218.5,88.1 219.1,76.9 104.9,71 104.1,88.1 			"/>
			<line class="st0" x1="213.2" y1="195.7" x2="216.7" y2="125.4"/>
			<line class="st0" x1="102.1" y1="107.9" x2="174.2" y2="107.9"/>
			<line class="st0" x1="153.7" y1="125.4" x2="163.9" y2="125.4"/>
			<line class="st0" x1="102.1" y1="125.4" x2="140.6" y2="125.4"/>
			<line class="st0" x1="102.1" y1="142.9" x2="150.7" y2="142.9"/>
			<g>
				<path class="st1" d="M158.5,170.9l-9.9-9.9l64-64c2.7-2.7,7.2-2.7,9.9,0v0c2.7,2.7,2.7,7.2,0,9.9L158.5,170.9z"/>
				<path class="st0" d="M158.5,170.9l-9.9-9.9l-0.4,0.4c-0.5,2.1-0.9,4.2-1.4,6.4c-0.5,2.1-0.9,4.2-1.4,6.4
					c2.1-0.5,4.2-0.9,6.4-1.4c2.1-0.5,4.2-0.9,6.4-1.4L158.5,170.9z"/>
				<line class="st0" x1="141.9" y1="177.5" x2="145.4" y2="174.1"/>
				<line class="st0" x1="165.2" y1="144.3" x2="175.1" y2="154.3"/>
				
					<rect x="207.5" y="101.7" transform="matrix(0.7071 -0.7071 0.7071 0.7071 -15.1314 180.8569)" class="st2" width="6.6" height="14.1"/>
				<path class="st0" d="M202.9,106.6c-1.2-0.4-3.7-1-6.7-0.3c-3.7,0.8-5.9,3-6.7,3.8c-4.7,4.7-9.3,9.3-14,14"/>
			</g>
			<path class="st0" d="M108,155.6c1.9,1.8,4.8,5.1,6.9,9.9c3.6,8.3,2.3,15.9,1.6,18.9c-1.4,5.9-5.4,15-9.2,14.6
				c-3.3-0.3-6.2-7.5-5.5-13.5c1.4-11.6,16.5-21.4,23.6-17.8c3.9,2,4.8,7.8,5.1,10.2c1.3,9.5-4.6,16.5-5.8,17.8"/>
			<path class="st0" d="M130.1,185.7c1.3,3.8,5.4,9.2,7,9.1c2.7-0.2,3.5-9.6,5.9-9.6c2.5,0,3.6,9.6,6.3,9.6c2.7,0,4.4-10,6.5-9.8
				c1.8,0.2,1.5,7.8,5.2,9.1c1.3,0.5,2.6,0,3.5-0.4"/>
			<line class="st0" x1="75.4" y1="103.4" x2="75.4" y2="167.5"/>
			<line class="st0" x1="75.4" y1="181.4" x2="75.4" y2="179"/>
		</g>
		<line class="st0" x1="200.3" y1="88.1" x2="200.3" y2="97.5"/>
		<path class="st1" d="M105.2,229h2.3c11.6,0,21.1-9.4,21.1-21.1v0h86.6v0.7c0,11.3-9.1,20.4-20.4,20.4h-87.2"/>
	</g>
	<g>
		<path class="st3" d="M210.6,70.1"/>
		<path class="st3" d="M118.8,54.7c9.8-3.2,20.3-5,31.2-5c14.4,0,28,3,40.4,8.5"/>
		<path class="st3" d="M97.3,64.7"/>
		<path class="st3" d="M91.5,231.4"/>
		<path class="st3" d="M161.6,249.6c-3.8,0.4-7.7,0.7-11.6,0.7c-10.2,0-20-1.5-29.2-4.3"/>
		<path class="st3" d="M261.7,112.3c4,11.8,6.2,24.5,6.2,37.7c0,13.9-2.4,27.2-6.8,39.6"/>
		<path class="st3" d="M236.6,70.1c4.6,5,8.8,10.5,12.6,16.2"/>
		<path class="st3" d="M201,43.7c11.1,5.4,21.3,12.4,30.2,20.8"/>
		<path class="st3" d="M74,59.9c4.1-3.5,8.4-6.6,13-9.5c4.6-2.9,9.3-5.5,14.3-7.7c3-1.4,6.2-2.6,9.3-3.8c1.6-0.6,3.2-1.1,4.8-1.6
			c10.9-3.3,22.5-5.2,34.6-5.2c12.6,0,24.8,2,36.1,5.6"/>
		<path class="st3" d="M33.6,168.2c-0.9-5.9-1.4-12-1.4-18.3c0-17.9,4-34.9,11.2-50.1"/>
		<path class="st3" d="M101.3,257.3c-17.1-7.8-32-19.5-43.6-34.1"/>
		<path class="st3" d="M124.5,265.1c-4.7-1-9.2-2.3-13.7-3.9"/>
		<path class="st3" d="M205.2,254.1c-16.5,8.8-35.3,13.7-55.2,13.7c-5.1,0-10.2-0.3-15.1-1"/>
		<path class="st3" d="M231.2,235.4c-4.8,4.5-9.9,8.7-15.4,12.4"/>
		<path class="st4" d="M174.7,16.7c39.5,7.3,73,31.6,92.5,65.1"/>
		<path class="st4" d="M155.5,14.6c3.7,0.2,7.4,0.5,11.1,0.9"/>
		<path class="st4" d="M26.7,93.6c21.1-46.1,67.3-78.3,121.2-79.1"/>
		<path class="st4" d="M26.1,205.1c-7.5-16.8-11.7-35.5-11.7-55.1c0-15.1,2.5-29.6,7-43.2"/>
		<path class="st4" d="M44.8,235.4c-3.6-4.5-7-9.2-10-14.1"/>
		<path class="st4" d="M249.5,242c-24.8,26.8-60.2,43.5-99.5,43.5c-36.2,0-69.1-14.2-93.4-37.3"/>
		<path class="st4" d="M276,99.9c6.2,15.5,9.6,32.4,9.6,50.1c0,23.4-5.9,45.4-16.4,64.6"/>
	</g>
</g>
</svg>
