<?xml version="1.0" encoding="utf-8"?>
<!-- Generator: Adobe Illustrator 19.2.0, SVG Export Plug-In . SVG Version: 6.00 Build 0)  -->
<svg version="1.1" id="Layer_1" xmlns="http://www.w3.org/2000/svg" xmlns:xlink="http://www.w3.org/1999/xlink" x="0px" y="0px"
	 viewBox="0 0 300 300" style="enable-background:new 0 0 300 300;" xml:space="preserve">
<style type="text/css">
	.st0{fill:none;stroke:#6897F8;stroke-width:4;stroke-miterlimit:10;}
	.st1{fill:#6897F8;}
	.st2{fill:#6897F8;stroke:#241E22;stroke-width:4;stroke-linecap:round;stroke-linejoin:round;stroke-miterlimit:10;}
	.st3{fill:none;stroke:#241E22;stroke-width:4;stroke-linecap:round;stroke-linejoin:round;stroke-miterlimit:10;}
	.st4{fill:#241E22;}
	.st5{fill:none;stroke:#241E22;stroke-width:4;stroke-miterlimit:10;}
</style>
<g>
	<g>
		<g>
			<g>
				<path class="st0" d="M73.3,85.4c8.8-10.5,19.7-19.1,32.1-25.3"/>
				<path class="st0" d="M60.1,194.3c-6.6-13.4-10.3-28.4-10.3-44.4c0-19.7,5.7-38,15.5-53.5"/>
				<path class="st0" d="M117,244.7c-7.1-2.5-13.8-5.7-20.1-9.6"/>
				<path class="st0" d="M212.4,228.5c-17.1,13.6-38.8,21.8-62.4,21.8c-6.7,0-13.3-0.7-19.7-1.9"/>
				<path class="st0" d="M247.2,174.5c-1.7,6.9-4.2,13.5-7.3,19.8"/>
				<path class="st0" d="M195.6,60.6C228,77.2,250.3,111,250.3,150c0,4.7-0.3,9.3-1,13.9"/>
				<path class="st0" d="M150,32.1c11.3,0,22.3,1.6,32.7,4.6"/>
				<path class="st0" d="M45.1,96.1c14.7-28.5,40.6-50.3,72-59.4"/>
				<path class="st0" d="M36,120c1.5-5.7,3.4-11.3,5.7-16.7"/>
				<path class="st0" d="M53.6,217.8c-13.5-19.2-21.5-42.6-21.5-67.8c0-7.5,0.7-14.9,2-22"/>
				<path class="st0" d="M68.5,235.1c-3.6-3.4-6.9-7-10-10.9"/>
				<path class="st0" d="M161.7,267.2c-3.9,0.4-7.8,0.6-11.7,0.6c-29.1,0-55.7-10.5-76.2-27.9"/>
				<path class="st0" d="M237.9,228.5c-16.2,18.2-38,31.3-62.6,36.6"/>
				<path class="st0" d="M226.3,60.1c25.4,21.6,41.6,53.8,41.6,89.8c0,25.2-7.9,48.6-21.5,67.8"/>
				<path class="st0" d="M195.6,41.3c7.1,3,13.9,6.7,20.3,11"/>
			</g>
			<g>
				<polygon class="st1" points="137,187.8 165.8,187.8 165.8,159 				"/>
				<rect x="119.6" y="57.8" class="st2" width="63.6" height="22.9"/>
				<line class="st3" x1="151.4" y1="80.7" x2="151.4" y2="96.1"/>
				
					<rect x="134.6" y="103.1" transform="matrix(0.7071 -0.7071 0.7071 0.7071 -40.5019 142.2204)" class="st3" width="33.7" height="33.7"/>
				<g>
					<path class="st3" d="M175.3,120h29.3c6.2,0,11.3,5.1,11.3,11.3v4.6"/>
					<circle class="st2" cx="215.8" cy="152.7" r="16.8"/>
					<line class="st3" x1="215.8" y1="169.5" x2="215.8" y2="188.6"/>
					<rect x="201" y="188.6" class="st3" width="29.8" height="29.8"/>
				</g>
				<polyline class="st3" points="201,206.2 164.4,206.2 164.4,221.4 				"/>
				<rect x="137" y="159" class="st3" width="28.8" height="28.8"/>
				<line class="st3" x1="151.4" y1="143.9" x2="151.4" y2="159"/>
				<line class="st3" x1="151.4" y1="187.8" x2="151.4" y2="221.4"/>
				<g>
					<path class="st3" d="M127.6,120H98.3c-6.2,0-11.3,5.1-11.3,11.3v4.6"/>
					<circle class="st3" cx="87" cy="152.7" r="16.8"/>
					<line class="st3" x1="87" y1="169.5" x2="87" y2="202"/>
					<path class="st2" d="M78.5,224.2h37c6.1,0,11.1-5,11.1-11.1v0c0-6.1-5-11.1-11.1-11.1h-37c-6.1,0-11.1,5-11.1,11.1v0
						C67.4,219.2,72.4,224.2,78.5,224.2z"/>
				</g>
				<path class="st3" d="M137,173.4h-25.8c-4.3,0-7.7,3.5-7.7,7.7V202"/>
				<line class="st3" x1="141.6" y1="221.4" x2="173.7" y2="221.4"/>
				<circle class="st4" cx="183.9" cy="137.4" r="3.2"/>
				<circle class="st4" cx="183.9" cy="153.8" r="3.2"/>
				<circle class="st4" cx="120.3" cy="137.4" r="3.2"/>
				<circle class="st4" cx="120.3" cy="153.8" r="3.2"/>
				<circle class="st4" cx="183.9" cy="170.2" r="3.2"/>
				<circle class="st4" cx="183.9" cy="186.6" r="3.2"/>
				
					<rect x="141.5" y="110.1" transform="matrix(0.7071 -0.7071 0.7071 0.7071 -40.5019 142.2204)" class="st1" width="19.8" height="19.8"/>
			</g>
		</g>
		<g>
			<path class="st5" d="M18.3,117.9c8.4-34.4,30.2-65.2,62.2-84.3"/>
			<path class="st5" d="M119.8,282.1c-40.5-9.3-76.2-37-94.1-78c-10.8-24.7-13.6-50.9-9.6-75.7"/>
			<path class="st5" d="M150.1,285.5c-4.8,0-9.6-0.3-14.4-0.8"/>
			<path class="st5" d="M221.5,265.1c-5.5,3.4-11.2,6.4-17.3,9.1c-12.4,5.4-25.2,8.8-37.9,10.4"/>
			<path class="st5" d="M181.5,18.1c39.9,9.6,75.1,37.1,92.7,77.7c24.2,55.4,8.4,118.1-34.7,156c-2.9,2.5-5.9,5-9.1,7.3"/>
			<path class="st5" d="M159.9,14.8c3.9,0.3,7.8,0.8,11.7,1.4"/>
			<path class="st5" d="M95.8,25.7c16.3-7.1,33.2-10.8,50-11.3"/>
		</g>
	</g>
	<g>
		<g>
			<g>
				<path class="st0" d="M73.3,85.4c8.8-10.5,19.7-19.1,32.1-25.3"/>
				<path class="st0" d="M60.1,194.3c-6.6-13.4-10.3-28.4-10.3-44.4c0-19.7,5.7-38,15.5-53.5"/>
				<path class="st0" d="M117,244.7c-7.1-2.5-13.8-5.7-20.1-9.6"/>
				<path class="st0" d="M212.4,228.5c-17.1,13.6-38.8,21.8-62.4,21.8c-6.7,0-13.3-0.7-19.7-1.9"/>
				<path class="st0" d="M247.2,174.5c-1.7,6.9-4.2,13.5-7.3,19.8"/>
				<path class="st0" d="M150,32.1c11.3,0,22.3,1.6,32.7,4.6"/>
				<path class="st0" d="M45.1,96.1c14.7-28.5,40.6-50.3,72-59.4"/>
				<path class="st0" d="M36,120c1.5-5.7,3.4-11.3,5.7-16.7"/>
				<path class="st0" d="M53.6,217.8c-13.5-19.2-21.5-42.6-21.5-67.8c0-7.5,0.7-14.9,2-22"/>
				<path class="st0" d="M68.5,235.1c-3.6-3.4-6.9-7-10-10.9"/>
				<path class="st0" d="M161.7,267.2c-3.9,0.4-7.8,0.6-11.7,0.6c-29.1,0-55.7-10.5-76.2-27.9"/>
				<path class="st0" d="M237.9,228.5c-16.2,18.2-38,31.3-62.6,36.6"/>
				<path class="st0" d="M195.6,41.3c7.1,3,13.9,6.7,20.3,11"/>
			</g>
			<g>
				<polygon class="st1" points="137,187.8 165.8,187.8 165.8,159 				"/>
				<rect x="119.6" y="57.8" class="st2" width="63.6" height="22.9"/>
				<line class="st3" x1="151.4" y1="80.7" x2="151.4" y2="96.1"/>
				
					<rect x="134.6" y="103.1" transform="matrix(0.7071 -0.7071 0.7071 0.7071 -40.5019 142.2204)" class="st3" width="33.7" height="33.7"/>
				<g>
					<path class="st3" d="M175.3,120h29.3c6.2,0,11.3,5.1,11.3,11.3v4.6"/>
					<circle class="st2" cx="215.8" cy="152.7" r="16.8"/>
					<line class="st3" x1="215.8" y1="169.5" x2="215.8" y2="188.6"/>
					<rect x="201" y="188.6" class="st3" width="29.8" height="29.8"/>
				</g>
				<polyline class="st3" points="201,206.2 164.4,206.2 164.4,221.4 				"/>
				<rect x="137" y="159" class="st3" width="28.8" height="28.8"/>
				<line class="st3" x1="151.4" y1="143.9" x2="151.4" y2="159"/>
				<line class="st3" x1="151.4" y1="187.8" x2="151.4" y2="221.4"/>
				<g>
					<path class="st3" d="M127.6,120H98.3c-6.2,0-11.3,5.1-11.3,11.3v4.6"/>
					<circle class="st3" cx="87" cy="152.7" r="16.8"/>
					<line class="st3" x1="87" y1="169.5" x2="87" y2="202"/>
					<path class="st2" d="M78.5,224.2h37c6.1,0,11.1-5,11.1-11.1v0c0-6.1-5-11.1-11.1-11.1h-37c-6.1,0-11.1,5-11.1,11.1v0
						C67.4,219.2,72.4,224.2,78.5,224.2z"/>
				</g>
				<path class="st3" d="M137,173.4h-25.8c-4.3,0-7.7,3.5-7.7,7.7V202"/>
				<line class="st3" x1="141.6" y1="221.4" x2="173.7" y2="221.4"/>
				<circle class="st4" cx="183.9" cy="137.4" r="3.2"/>
				<circle class="st4" cx="183.9" cy="153.8" r="3.2"/>
				<circle class="st4" cx="120.3" cy="137.4" r="3.2"/>
				<circle class="st4" cx="120.3" cy="153.8" r="3.2"/>
				<circle class="st4" cx="183.9" cy="170.2" r="3.2"/>
				<circle class="st4" cx="183.9" cy="186.6" r="3.2"/>
				
					<rect x="141.5" y="110.1" transform="matrix(0.7071 -0.7071 0.7071 0.7071 -40.5019 142.2204)" class="st1" width="19.8" height="19.8"/>
			</g>
		</g>
		<g>
			<path class="st5" d="M18.3,117.9c8.4-34.4,30.2-65.2,62.2-84.3"/>
			<path class="st5" d="M119.8,282.1c-40.5-9.3-76.2-37-94.1-78c-10.8-24.7-13.6-50.9-9.6-75.7"/>
			<path class="st5" d="M150.1,285.5c-4.8,0-9.6-0.3-14.4-0.8"/>
			<path class="st5" d="M221.5,265.1c-5.5,3.4-11.2,6.4-17.3,9.1c-12.4,5.4-25.2,8.8-37.9,10.4"/>
			<path class="st5" d="M181.5,18.1c39.9,9.6,75.1,37.1,92.7,77.7c24.2,55.4,8.4,118.1-34.7,156c-2.9,2.5-5.9,5-9.1,7.3"/>
			<path class="st5" d="M159.9,14.8c3.9,0.3,7.8,0.8,11.7,1.4"/>
			<path class="st5" d="M95.8,25.7c16.3-7.1,33.2-10.8,50-11.3"/>
		</g>
	</g>
</g>
</svg>
