<?xml version="1.0" encoding="UTF-8"?>
<svg preserveAspectRatio="none" width="594px" height="784px" viewBox="0 0 594 784" version="1.1" xmlns="http://www.w3.org/2000/svg" xmlns:xlink="http://www.w3.org/1999/xlink">
    <!-- Generator: Sketch 51 (57462) - http://www.bohemiancoding.com/sketch -->
    <title>Group</title>
    <desc>Created with Sketch.</desc>
    <defs></defs>
    <g id="Page-1" stroke="none" stroke-width="1" fill="none" fill-rule="evenodd">
        <g id="Group" fill="#FFFFFF">
            <polygon id="+" opacity="0.75" points="355.6 517 317.23139 517 317.23139 557.6 298.58296 557.6 298.58296 517 260 517 260 501.2 298.58296 501.2 298.58296 462 317.23139 462 317.23139 501.2 355.6 501.2"></polygon>
            <polygon id="+" opacity="0.9" points="229.6 197 191.23139 197 191.23139 237.6 172.58296 237.6 172.58296 197 134 197 134 181.2 172.58296 181.2 172.58296 142 191.23139 142 191.23139 181.2 229.6 181.2"></polygon>
            <polygon id="+" opacity="0.9" points="184.6 668 146.23139 668 146.23139 708.6 127.58296 708.6 127.58296 668 89 668 89 652.2 127.58296 652.2 127.58296 613 146.23139 613 146.23139 652.2 184.6 652.2"></polygon>
            <polygon id="+" opacity="0.5" points="483.6 743 445.23139 743 445.23139 783.6 426.58296 783.6 426.58296 743 388 743 388 727.2 426.58296 727.2 426.58296 688 445.23139 688 445.23139 727.2 483.6 727.2"></polygon>
            <polygon id="+" opacity="0.8" points="548.6 313 510.23139 313 510.23139 353.6 491.58296 353.6 491.58296 313 453 313 453 297.2 491.58296 297.2 491.58296 258 510.23139 258 510.23139 297.2 548.6 297.2"></polygon>
            <polygon id="+" opacity="0.5" points="593.6 55 555.23139 55 555.23139 95.6 536.58296 95.6 536.58296 55 498 55 498 39.2 536.58296 39.2 536.58296 0 555.23139 0 555.23139 39.2 593.6 39.2"></polygon>
            <polygon id="+" opacity="0.5" points="95.6 361 57.2313901 361 57.2313901 401.6 38.5829596 401.6 38.5829596 361 0 361 0 345.2 38.5829596 345.2 38.5829596 306 57.2313901 306 57.2313901 345.2 95.6 345.2"></polygon>
        </g>
    </g>
</svg>